<?xml version="1.0" encoding="iso-8859-1"?>
<!-- Uploaded to: SVG Repo, www.svgrepo.com, Generator: SVG Repo Mixer Tools -->
<!DOCTYPE svg PUBLIC "-//W3C//DTD SVG 1.1//EN" "http://www.w3.org/Graphics/SVG/1.1/DTD/svg11.dtd">
<svg fill="#000000" version="1.1" id="Capa_1" xmlns="http://www.w3.org/2000/svg" xmlns:xlink="http://www.w3.org/1999/xlink" 
	 width="800px" height="800px" viewBox="0 0 41.5 41.5" xml:space="preserve">
<g>
	<path d="M33.5,0H8C7.447,0,7,0.448,7,1v39.5c0,0.552,0.447,1,1,1h25.5c0.553,0,1-0.448,1-1V1C34.5,0.448,34.053,0,33.5,0z
		 M32.5,39.5H9V2h23.5V39.5z M22.365,35.501c0.115,0.324,0.322,0.589,0.568,0.808l-0.021,0.321
		c-0.047,0.796-0.708,1.411-1.496,1.411c-0.027,0-0.062-0.001-0.09-0.002c-0.827-0.049-1.457-0.76-1.408-1.586l0.338-5.707
		c0.305,0.496,0.565,0.936,0.727,1.234C21.262,32.502,21.959,34.354,22.365,35.501z M13.664,15.108
		c0.297,0.297,0.99,0.076,1.6-0.473c0.26,0.108,0.543,0.168,0.842,0.168h0.914c-1.83,1.051-2.516,2.674-2.556,2.776
		c-0.188,0.472-0.071,1.01,0.293,1.362l1.816,1.754l1.302,1.257v-3.476l-0.229-0.22l-0.435-0.419
		c0.172-0.208,0.41-0.442,0.711-0.659c-0.028,0.173-0.049,0.349-0.049,0.53v0.768l2.243,2.167c0.497,0.479,0.511,1.271,0.031,1.768
		s-1.271,0.511-1.769,0.031l-0.507-0.489v3.298c0,0.062-0.1,0.792,0.249,1.619c0.026,0.039,2.595,3.924,3.302,5.252
		c0.305,0.572,1.027,2.504,1.411,3.588c0.218,0.615,0.797,1,1.414,1c0.166,0,0.335-0.027,0.501-0.087
		c0.781-0.276,1.189-1.134,0.913-1.915c-0.108-0.309-1.082-3.04-1.591-3.995c-0.172-0.321-0.434-0.767-0.734-1.259l0.182-3.066
		c0.063-0.193,0.104-0.41,0.104-0.678v-3.736l2.935-2.722c0.42-0.389,0.521-1.013,0.248-1.515c-0.793-1.455-1.432-2.364-2.224-2.932
		h0.812c0.299,0,0.584-0.061,0.844-0.168c0.607,0.549,1.305,0.771,1.603,0.473c0.294-0.293,0.08-0.972-0.452-1.574
		c0.137-0.284,0.217-0.597,0.217-0.932V7.442c0-0.334-0.08-0.647-0.217-0.931c0.532-0.603,0.746-1.282,0.452-1.575
		c-0.3-0.297-0.989-0.076-1.603,0.473c-0.26-0.108-0.545-0.168-0.844-0.168h-9.291c-0.299,0-0.582,0.061-0.844,0.168
		c-0.607-0.548-1.302-0.77-1.599-0.472c-0.293,0.293-0.08,0.972,0.453,1.574c-0.134,0.284-0.214,0.597-0.214,0.931v5.161
		c0,0.334,0.08,0.647,0.214,0.931C13.584,14.136,13.371,14.814,13.664,15.108z M23.625,18.562v-0.854
		c0-0.153-0.021-0.299-0.041-0.445c0.178,0.215,0.354,0.478,0.555,0.822L23.625,18.562z M20.75,8.021
		c1.727,0,3.125,1.399,3.125,3.125s-1.398,3.125-3.125,3.125c-1.727,0-3.125-1.399-3.125-3.125S19.023,8.021,20.75,8.021z"/>
</g>
</svg>